<svg width="250" height="44" viewBox="0 0 250 44" fill="none" xmlns="http://www.w3.org/2000/svg">
<path d="M69.3157 10.1518L62.7391 42.9787H55.1053L56.6536 35.1232H56.6626L58.7373 24.7671L61.6814 10.1518H69.3157ZM6.055 15.0227C6.41372 17.251 7.13034 19.3355 8.20568 21.2045C-0.9715 14.2322 0.0323442 4.16897 0.0323442 4.09729C0.103842 3.37802 0.749376 2.80334 1.46641 2.80334H5.83968V5.67837H2.90006C2.90006 7.61908 3.40219 11.2851 6.055 15.0227ZM39.7526 4.09729C39.6807 3.37802 39.0356 2.80334 38.3185 2.80334H33.9449V5.67837H36.8845C36.813 7.5474 36.3113 11.2851 33.658 14.951C33.2997 17.1793 32.5827 19.3355 31.5074 21.2045C40.7564 14.2322 39.7526 4.16897 39.7526 4.09729ZM27.7792 31.7707H22.4017V27.1708C28.1375 24.2958 31.7942 18.4011 31.7942 11.9318V1.43772C31.7942 0.646767 31.1486 0 30.3601 0H9.42484C8.6359 0 7.99078 0.646767 7.99078 1.43772V11.8601C7.99078 18.4011 11.7189 24.2958 17.3833 27.0987V31.699H12.0062C10.4287 31.699 9.20953 32.993 9.20953 34.5024V40.1807C9.20953 41.7622 10.5002 42.9841 12.0062 42.9841H27.7792C29.3563 42.9841 30.5754 41.6901 30.5754 40.1807V34.5024C30.5754 32.993 29.2848 31.7707 27.7792 31.7707ZM56.1967 31.5495C54.4585 31.8535 52.7303 32.0055 51.0123 32.0055C48.8661 32.0055 47.0955 31.4523 45.7005 30.3457C44.3054 29.2392 43.6081 27.7331 43.6081 25.8274C43.6081 25.2128 43.7002 24.4136 43.8843 23.4299L46.5515 10.1518H54.1853L51.8398 21.8162C51.7174 22.4309 51.6562 22.8919 51.6562 23.1996C51.6562 24.5211 52.5914 25.1819 54.4614 25.1819C55.5178 25.1819 56.5365 25.1139 57.5169 24.9767C57.4158 25.4991 57.6361 24.4091 56.1967 31.5495ZM96.7704 10.1518L95.4366 16.8831H81.9621L80.7204 23.0612H80.7294C79.7359 28.0516 81.2969 20.3023 78.3096 35.1232H78.3236L78.0992 36.247H91.8494L90.516 42.9787H69.0856L75.6617 10.1518H96.7704ZM81.9124 23.0612H92.3556L91.0218 29.7925H80.5638L81.9124 23.0612ZM131.399 10.1518L124.823 42.9787H117.189L120.408 26.7955L114.568 34.9102H109.693L106.704 26.7955L103.439 42.9787H95.8047L102.381 10.1518H109.509L113.694 24.6286L123.903 10.1518H131.399ZM161.154 10.1518L154.577 42.9787H146.943L152.14 16.9292H144L138.804 42.9787H131.169L137.746 10.1518H161.154ZM191.828 10.1518L185.251 42.9787H177.617L181.021 26.5191L167.27 42.9787H160.924L167.5 10.1518H175.134L171.869 26.6575L185.481 10.1518H191.828ZM218.455 19.4648C218.455 21.2782 218.164 23.6453 217.581 26.5652C217.121 28.9319 216.738 30.7144 216.431 31.9132C216.125 33.112 215.65 34.4183 215.006 35.8321C214.362 37.2464 213.58 38.4452 212.66 39.4285C210.269 41.9797 207.126 43.2551 203.233 43.2551C199.983 43.2551 197.454 42.3179 195.645 40.4427C193.836 38.5679 192.932 36.3088 192.932 33.6653C192.932 31.8518 193.222 29.4852 193.805 26.5652C194.265 24.1986 194.648 22.4156 194.955 21.2169C195.261 20.0181 195.737 18.7118 196.38 17.2979C197.025 15.8841 197.806 14.6853 198.726 13.7016C201.117 11.1508 204.26 9.87494 208.154 9.87494C211.403 9.87494 213.933 10.8125 215.741 12.6873C217.55 14.5626 218.455 16.8217 218.455 19.4648ZM210.775 20.1103C210.775 19.0038 210.476 18.1433 209.878 17.5286C209.28 16.9136 208.506 16.6063 207.556 16.6063C206.299 16.6063 205.21 17.1134 204.291 18.128C203.34 19.1731 202.405 21.9856 201.485 26.5652C200.903 29.4852 200.611 31.6368 200.611 33.0197C200.611 34.1262 200.91 34.9868 201.508 35.6019C202.106 36.2165 202.88 36.5238 203.831 36.5238C205.088 36.5238 206.176 36.0167 207.096 35.0025C208.046 33.9573 208.981 31.1449 209.901 26.5652C210.483 23.6453 210.775 21.4937 210.775 20.1103ZM249.542 10.1518L242.966 42.9787H235.333L238 29.7464H230.972L232.329 22.9689H239.38L241.909 10.1518H249.542ZM227.134 42.9787H219.558L226.135 10.1518H233.716C225.878 49.8674 230.751 25.0377 227.134 42.9787Z" fill="white"/>
</svg>
