<svg width="291" height="324" viewBox="0 0 291 324" fill="none" xmlns="http://www.w3.org/2000/svg">
<path d="M56.1599 141.196C59.487 162.139 66.1336 181.731 76.1074 199.297C-9.01063 133.766 0.299992 39.1834 0.299992 38.5097C0.96313 31.7494 6.95043 26.3482 13.6009 26.3482H54.1628V53.37H26.8979C26.8979 71.6105 31.5551 106.066 56.1599 141.196Z" fill="#1552BC" fill-opacity="0.1"/>
<path d="M257.651 298.607H207.775V255.374C260.974 228.352 294.89 172.949 294.89 112.145V13.5129C294.89 6.07886 288.902 0 281.589 0H87.415C80.0976 0 74.1141 6.07886 74.1141 13.5129V111.471C74.1141 172.949 108.693 228.352 161.229 254.696V297.934H111.357C96.7256 297.934 85.418 310.095 85.418 324.282H283.586C283.586 310.095 271.615 298.607 257.651 298.607Z" fill="#1552BC" fill-opacity="0.1"/>
</svg>
