<svg width="24" height="27" viewBox="0 0 24 27" fill="none" xmlns="http://www.w3.org/2000/svg">
<path d="M3.65267 9.18672C3.86907 10.5494 4.30137 11.8241 4.95007 12.967C-0.586057 8.70329 0.0195117 2.54942 0.0195117 2.50558C0.0626426 2.06573 0.45206 1.71431 0.884609 1.71431H3.52279V3.47245H1.74946C1.74946 4.65924 2.05237 6.90106 3.65267 9.18672ZM23.9807 2.50558C23.9374 2.06573 23.5482 1.71431 23.1156 1.71431H20.4772V3.47245H22.2505C22.2074 4.6154 21.9048 6.90106 20.3042 9.14289C20.088 10.5055 19.6555 11.8241 19.0068 12.967C24.5863 8.70329 23.9807 2.54942 23.9807 2.50558ZM16.7578 19.4285H13.5138V16.6156C16.9739 14.8574 19.1798 11.2527 19.1798 7.29658V0.879197C19.1798 0.395513 18.7904 0 18.3147 0H5.68553C5.2096 0 4.82043 0.395513 4.82043 0.879197V7.25274C4.82043 11.2527 7.06944 14.8574 10.4865 16.5715V19.3846H7.24271C6.2911 19.3846 5.55564 20.1759 5.55564 21.099V24.5714C5.55564 25.5385 6.33423 26.2857 7.24271 26.2857H16.7578C17.7092 26.2857 18.4446 25.4944 18.4446 24.5714V21.099C18.4446 20.1759 17.666 19.4285 16.7578 19.4285Z" fill="white"/>
</svg>
